<svg height="120" viewBox="0 0 30 120" width="30" xmlns="http://www.w3.org/2000/svg"><view viewBox="0 0 30 30"/><svg height="30" viewBox="-10 -10 30 30" width="30"><path d="m5 .5c2.475 0 4.5 2.024 4.5 4.5 0 2.475-2.025 4.5-4.5 4.5a4.513 4.513 0 0 1 -4.5-4.5c0-2.476 2.024-4.5 4.5-4.5" fill="#ffb502" stroke="#fff" stroke-miterlimit="10" stroke-width=".7"/><path d="m7.409 3.156h.032-.877l-1.564 3.129-1.564-3.129h-.876l.25.626 1.877 3.755h.626l1.877-3.755h.033z" fill="#fff"/></svg><view viewBox="0 30 30 30"/><svg height="30" viewBox="-10 -10 30 30" width="30" y="30"><path d="m5 .5c2.475 0 4.5 2.025 4.5 4.5 0 2.474-2.026 4.5-4.5 4.5s-4.5-2.025-4.5-4.5 2.025-4.5 4.5-4.5" fill="#00a4ff" stroke="#fff" stroke-miterlimit="10" stroke-width=".7"/><path d="m7.49 3.094h.032-.905l-1.617 3.234-1.617-3.234h-.905l.258.647 1.941 3.88h.646l1.94-3.88h.033z" fill="#fff"/></svg><view viewBox="0 60 30 30"/><svg height="30" viewBox="-10 -10 30 30" width="30" y="60"><path d="m5 .5c2.475 0 4.5 2.025 4.5 4.5 0 2.476-2.025 4.5-4.5 4.5s-4.5-2.024-4.5-4.5c0-2.475 2.025-4.5 4.5-4.5" fill="#ed3714" stroke="#fff" stroke-miterlimit="10" stroke-width=".7"/><path d="m7.919 4.058h-1.925l-1.027-2.214-.993 2.214h-1.893l1.411 1.571-.449 2.182zm-3.496.609.577-1.155.545 1.155h.417l-1.893 1.54.161-.642-.641-.898zm.738 2.213 2.02.93-.513-2.213z" fill="#fff"/></svg><view viewBox="0 90 30 30"/><svg height="30" viewBox="-10 -10 30 30" width="30" y="90"><path d="m5 .5c2.475 0 4.5 2.025 4.5 4.5s-2.025 4.5-4.5 4.5-4.5-2.025-4.5-4.5 2.025-4.5 4.5-4.5" fill="#fd5093" stroke="#fff" stroke-miterlimit="10" stroke-width=".7"/><path d="m7.47 4.125v-1.564c-1.473.153-2.116 3.682-2.116 3.682h-.645s-.706-3.529-2.179-3.682v1.565s.736 1.687 1.534 2.117v.584h-.613l-.307.306v.307h.675l.307-.307h1.841l.307.307h.613v-.307l-.306-.307h-.584v-.583c.768-.399 1.473-2.118 1.473-2.118z" fill="#fff"/></svg></svg>